<mxfile host="app.diagrams.net" modified="2023-10-15T16:07:25.872Z" agent="Mozilla/5.0 (Windows NT 10.0; Win64; x64) AppleWebKit/537.36 (KHTML, like Gecko) Chrome/117.0.0.0 Safari/537.36" etag="-Ge70PJsbhD9oOXy8Js5" version="22.0.4" type="device">
  <diagram name="Página-1" id="SmJE9D64vubkvxC9qLt7">
    <mxGraphModel dx="954" dy="1779" grid="1" gridSize="10" guides="1" tooltips="1" connect="1" arrows="1" fold="1" page="1" pageScale="1" pageWidth="827" pageHeight="1169" math="0" shadow="0">
      <root>
        <mxCell id="0" />
        <mxCell id="1" parent="0" />
        <mxCell id="9EmgTGiWLBgWvlBg7fOt-16" style="edgeStyle=orthogonalEdgeStyle;rounded=0;orthogonalLoop=1;jettySize=auto;html=1;exitX=0.5;exitY=1;exitDx=0;exitDy=0;entryX=0.5;entryY=0;entryDx=0;entryDy=0;" edge="1" parent="1" source="9EmgTGiWLBgWvlBg7fOt-2" target="9EmgTGiWLBgWvlBg7fOt-14">
          <mxGeometry relative="1" as="geometry" />
        </mxCell>
        <mxCell id="9EmgTGiWLBgWvlBg7fOt-2" value="&lt;div style=&quot;font-family: Consolas, &amp;quot;Courier New&amp;quot;, monospace; font-size: 14px; line-height: 19px;&quot;&gt;&lt;div style=&quot;&quot;&gt;&lt;div style=&quot;line-height: 19px;&quot;&gt;&lt;span style=&quot;background-color: rgb(255, 255, 255);&quot;&gt;n = 1;n &amp;lt;= 10; n++&lt;/span&gt;&lt;/div&gt;&lt;/div&gt;&lt;/div&gt;" style="rhombus;whiteSpace=wrap;html=1;" vertex="1" parent="1">
          <mxGeometry x="170" y="280" width="280" height="200" as="geometry" />
        </mxCell>
        <mxCell id="9EmgTGiWLBgWvlBg7fOt-12" style="edgeStyle=orthogonalEdgeStyle;rounded=0;orthogonalLoop=1;jettySize=auto;html=1;entryX=0.5;entryY=0;entryDx=0;entryDy=0;" edge="1" parent="1" source="9EmgTGiWLBgWvlBg7fOt-3" target="9EmgTGiWLBgWvlBg7fOt-2">
          <mxGeometry relative="1" as="geometry" />
        </mxCell>
        <mxCell id="9EmgTGiWLBgWvlBg7fOt-3" value="&#xa;&lt;div style=&quot;color: rgb(204, 204, 204); background-color: rgb(31, 31, 31); font-family: Consolas, &amp;quot;Courier New&amp;quot;, monospace; font-weight: normal; font-size: 14px; line-height: 19px;&quot;&gt;&lt;div&gt;&lt;span style=&quot;color: #9cdcfe;&quot;&gt;a&lt;/span&gt;&lt;span style=&quot;color: #d4d4d4;&quot;&gt; + &lt;/span&gt;&lt;span style=&quot;color: #ce9178;&quot;&gt;&#39; x &#39;&lt;/span&gt;&lt;span style=&quot;color: #d4d4d4;&quot;&gt; + &lt;/span&gt;&lt;span style=&quot;color: #9cdcfe;&quot;&gt;n&lt;/span&gt;&lt;span style=&quot;color: #d4d4d4;&quot;&gt; + &lt;/span&gt;&lt;span style=&quot;color: #ce9178;&quot;&gt;&#39; = &#39;&lt;/span&gt;&lt;span style=&quot;color: #d4d4d4;&quot;&gt; + &lt;/span&gt;&lt;span style=&quot;color: #9cdcfe;&quot;&gt;a&lt;/span&gt;&lt;span style=&quot;color: #d4d4d4;&quot;&gt; * &lt;/span&gt;&lt;span style=&quot;color: #9cdcfe;&quot;&gt;n&lt;/span&gt;&lt;/div&gt;&lt;/div&gt;&#xa;&#xa;" style="rounded=0;whiteSpace=wrap;html=1;" vertex="1" parent="1">
          <mxGeometry x="170" y="180" width="280" height="50" as="geometry" />
        </mxCell>
        <mxCell id="9EmgTGiWLBgWvlBg7fOt-10" style="edgeStyle=orthogonalEdgeStyle;rounded=0;orthogonalLoop=1;jettySize=auto;html=1;exitX=0;exitY=0.5;exitDx=0;exitDy=0;entryX=0.007;entryY=0.4;entryDx=0;entryDy=0;entryPerimeter=0;" edge="1" parent="1">
          <mxGeometry relative="1" as="geometry">
            <mxPoint x="170.00000000000003" y="200" as="targetPoint" />
            <mxPoint x="168.04" y="380" as="sourcePoint" />
            <Array as="points">
              <mxPoint x="168.04" y="381" />
              <mxPoint x="89.04" y="381" />
              <mxPoint x="89.04" y="204" />
              <mxPoint x="158.04" y="204" />
              <mxPoint x="158.04" y="200" />
            </Array>
          </mxGeometry>
        </mxCell>
        <mxCell id="9EmgTGiWLBgWvlBg7fOt-13" value="inicio" style="ellipse;whiteSpace=wrap;html=1;" vertex="1" parent="1">
          <mxGeometry x="250" y="-10" width="120" height="70" as="geometry" />
        </mxCell>
        <mxCell id="9EmgTGiWLBgWvlBg7fOt-14" value="fim" style="ellipse;whiteSpace=wrap;html=1;" vertex="1" parent="1">
          <mxGeometry x="250" y="520" width="120" height="80" as="geometry" />
        </mxCell>
        <mxCell id="9EmgTGiWLBgWvlBg7fOt-17" value="&lt;div style=&quot;font-family: Consolas, &amp;quot;Courier New&amp;quot;, monospace; font-size: 14px; line-height: 19px;&quot;&gt;&lt;span style=&quot;background-color: rgb(255, 255, 255);&quot;&gt;DIGITE UM NÚMERO&lt;/span&gt;&lt;/div&gt;" style="html=1;strokeWidth=2;shape=manualInput;whiteSpace=wrap;rounded=1;size=26;arcSize=11;" vertex="1" parent="1">
          <mxGeometry x="190" y="90" width="240" height="60" as="geometry" />
        </mxCell>
        <mxCell id="9EmgTGiWLBgWvlBg7fOt-18" style="edgeStyle=orthogonalEdgeStyle;rounded=0;orthogonalLoop=1;jettySize=auto;html=1;entryX=0.488;entryY=0.15;entryDx=0;entryDy=0;entryPerimeter=0;" edge="1" parent="1" source="9EmgTGiWLBgWvlBg7fOt-13" target="9EmgTGiWLBgWvlBg7fOt-17">
          <mxGeometry relative="1" as="geometry" />
        </mxCell>
      </root>
    </mxGraphModel>
  </diagram>
</mxfile>
